<svg xmlns="http://www.w3.org/2000/svg" xmlns:xlink="http://www.w3.org/1999/xlink" width="500" zoomAndPan="magnify" viewBox="0 0 375 374.999991" height="500" preserveAspectRatio="xMidYMid meet" version="1.0"><defs><g/></defs><g fill="#007cf0" fill-opacity="1"><g transform="translate(119.948427, 200.275021)"><g><path d="M 16.167969 -15.628906 C 16.167969 -16.277344 15.910156 -16.667969 15.492188 -16.910156 C 15.074219 -17.152344 14.535156 -17.222656 13.957031 -17.222656 C 13.507812 -17.222656 13.226562 -17.152344 13.0625 -17.046875 C 12.902344 -16.9375 12.847656 -16.777344 12.847656 -16.574219 C 12.847656 -16.410156 12.875 -16.25 12.914062 -16.074219 C 12.957031 -15.898438 12.984375 -15.710938 12.996094 -15.535156 L 12.996094 -9.945312 L 4.964844 -9.945312 L 4.964844 -15.628906 C 4.964844 -16.222656 4.722656 -16.640625 4.332031 -16.882812 C 3.941406 -17.125 3.375 -17.222656 2.710938 -17.222656 C 2.265625 -17.222656 1.996094 -17.152344 1.847656 -17.046875 C 1.6875 -16.9375 1.648438 -16.777344 1.648438 -16.574219 C 1.648438 -16.410156 1.671875 -16.25 1.714844 -16.074219 C 1.753906 -15.898438 1.78125 -15.710938 1.796875 -15.535156 L 1.796875 -1.539062 C 1.796875 -1.105469 1.945312 -0.6875 2.226562 -0.378906 C 2.496094 -0.0546875 2.886719 0.136719 3.375 0.136719 C 3.859375 0.136719 4.265625 -0.0546875 4.535156 -0.363281 C 4.804688 -0.675781 4.964844 -1.09375 4.964844 -1.539062 L 4.964844 -6.761719 L 12.996094 -6.761719 L 12.996094 -1.539062 C 12.996094 -1.09375 13.160156 -0.675781 13.441406 -0.363281 C 13.710938 -0.0546875 14.105469 0.136719 14.574219 0.136719 C 15.019531 0.136719 15.441406 -0.0390625 15.722656 -0.351562 C 15.992188 -0.660156 16.167969 -1.066406 16.167969 -1.539062 Z M 16.167969 -15.628906 "/></g></g></g><g fill="#ffffff" fill-opacity="1"><g transform="translate(137.678895, 200.275021)"><g><path d="M 1.351562 -16.601562 C 1.351562 -16.113281 1.539062 -15.683594 1.863281 -15.371094 C 2.171875 -15.0625 2.617188 -14.886719 3.105469 -14.886719 C 3.589844 -14.886719 4.023438 -15.0625 4.347656 -15.371094 C 4.667969 -15.683594 4.859375 -16.113281 4.859375 -16.601562 C 4.859375 -17.085938 4.667969 -17.519531 4.347656 -17.828125 C 4.023438 -18.140625 3.589844 -18.328125 3.105469 -18.328125 C 2.617188 -18.328125 2.171875 -18.140625 1.863281 -17.828125 C 1.539062 -17.519531 1.351562 -17.085938 1.351562 -16.601562 Z M 1.511719 -1.457031 C 1.511719 -1.011719 1.6875 -0.605469 1.96875 -0.324219 C 2.242188 -0.0390625 2.644531 0.136719 3.089844 0.136719 C 3.523438 0.136719 3.925781 -0.0390625 4.210938 -0.324219 C 4.496094 -0.605469 4.683594 -1.011719 4.683594 -1.457031 L 4.683594 -11.621094 C 4.683594 -12.050781 4.496094 -12.457031 4.210938 -12.742188 C 3.925781 -13.023438 3.523438 -13.199219 3.089844 -13.199219 C 2.644531 -13.199219 2.242188 -13.023438 1.96875 -12.742188 C 1.6875 -12.457031 1.511719 -12.050781 1.511719 -11.621094 Z M 1.511719 -1.457031 "/></g></g></g><g fill="#ffffff" fill-opacity="1"><g transform="translate(143.872734, 200.275021)"><g><path d="M 19.652344 -11.230469 C 18.828125 -12.417969 17.519531 -13.171875 15.589844 -13.171875 C 14.414062 -13.171875 13.46875 -12.765625 12.742188 -12.242188 C 12.296875 -11.917969 11.929688 -11.539062 11.660156 -11.1875 C 11.632812 -11.230469 11.621094 -11.269531 11.59375 -11.296875 C 10.769531 -12.46875 9.472656 -13.171875 7.542969 -13.171875 C 6.371094 -13.171875 5.410156 -12.726562 4.683594 -12.171875 C 4.359375 -11.929688 4.074219 -11.660156 3.847656 -11.390625 L 3.777344 -11.621094 C 3.5625 -12.742188 3.035156 -13.1875 2.375 -13.1875 C 1.796875 -13.1875 1.511719 -12.902344 1.511719 -12.320312 L 1.511719 -1.457031 C 1.511719 -1.011719 1.6875 -0.605469 1.96875 -0.324219 C 2.253906 -0.0390625 2.660156 0.136719 3.105469 0.136719 C 3.535156 0.136719 3.941406 -0.0390625 4.222656 -0.324219 C 4.507812 -0.605469 4.695312 -1.011719 4.695312 -1.457031 L 4.695312 -6.707031 C 4.695312 -7.640625 4.925781 -8.488281 5.359375 -9.097656 C 5.789062 -9.703125 6.425781 -10.082031 7.273438 -10.082031 C 8.152344 -10.082031 8.730469 -9.71875 9.097656 -9.125 C 9.460938 -8.53125 9.582031 -7.691406 9.582031 -6.734375 L 9.582031 -1.457031 C 9.582031 -1.027344 9.757812 -0.621094 10.042969 -0.335938 C 10.324219 -0.0546875 10.730469 0.136719 11.175781 0.136719 C 11.621094 0.136719 12.023438 -0.0664062 12.308594 -0.363281 C 12.59375 -0.660156 12.753906 -1.050781 12.753906 -1.445312 L 12.753906 -7.03125 C 12.792969 -7.828125 13.023438 -8.554688 13.402344 -9.097656 C 13.832031 -9.703125 14.480469 -10.082031 15.332031 -10.082031 C 16.210938 -10.082031 16.804688 -9.71875 17.152344 -9.125 C 17.503906 -8.53125 17.625 -7.691406 17.625 -6.734375 L 17.625 -1.457031 C 17.625 -1.027344 17.816406 -0.621094 18.097656 -0.335938 C 18.382812 -0.0546875 18.785156 0.136719 19.230469 0.136719 C 19.703125 0.136719 20.097656 -0.0664062 20.367188 -0.363281 C 20.636719 -0.660156 20.796875 -1.050781 20.796875 -1.445312 L 20.796875 -6.53125 C 20.796875 -8.367188 20.460938 -10.027344 19.652344 -11.230469 Z M 19.652344 -11.230469 "/></g></g></g><g fill="#ffffff" fill-opacity="1"><g transform="translate(166.17863, 200.275021)"><g><path d="M 13.335938 -13.171875 C 12.671875 -13.171875 12.148438 -12.742188 11.929688 -11.605469 L 11.808594 -11.242188 C 10.796875 -12.429688 9.351562 -13.171875 7.53125 -13.171875 C 5.695312 -13.171875 4.050781 -12.417969 2.835938 -11.214844 C 1.621094 -10.015625 0.863281 -8.355469 0.863281 -6.519531 C 0.863281 -4.683594 1.621094 -3.007812 2.835938 -1.808594 C 4.050781 -0.605469 5.695312 0.148438 7.53125 0.148438 C 9.300781 0.148438 10.730469 -0.554688 11.726562 -1.6875 L 11.929688 -0.902344 C 12.132812 -0.269531 12.550781 0.148438 13.210938 0.148438 C 13.847656 0.148438 14.199219 -0.214844 14.199219 -0.878906 L 14.199219 -12.308594 C 14.199219 -12.890625 13.914062 -13.171875 13.335938 -13.171875 Z M 9.988281 -3.980469 C 9.367188 -3.332031 8.503906 -2.929688 7.53125 -2.929688 C 6.558594 -2.929688 5.695312 -3.332031 5.074219 -3.980469 C 4.453125 -4.628906 4.074219 -5.535156 4.074219 -6.519531 C 4.074219 -7.492188 4.453125 -8.394531 5.074219 -9.042969 C 5.695312 -9.691406 6.558594 -10.09375 7.53125 -10.09375 C 8.503906 -10.09375 9.367188 -9.691406 9.988281 -9.042969 C 10.609375 -8.394531 10.984375 -7.492188 10.984375 -6.519531 C 10.984375 -5.535156 10.609375 -4.628906 9.988281 -3.980469 Z M 9.988281 -3.980469 "/></g></g></g><g fill="#ffffff" fill-opacity="1"><g transform="translate(182.020811, 200.275021)"><g><path d="M 13.1875 -11.230469 C 12.105469 -12.417969 10.582031 -13.171875 8.746094 -13.171875 C 7.789062 -13.171875 6.800781 -12.902344 5.898438 -12.46875 C 5.15625 -12.105469 4.46875 -11.621094 3.914062 -11.054688 L 3.777344 -11.621094 C 3.550781 -12.792969 3.035156 -13.1875 2.375 -13.1875 C 1.796875 -13.1875 1.511719 -12.902344 1.511719 -12.320312 L 1.511719 -1.457031 C 1.511719 -1.011719 1.6875 -0.605469 1.96875 -0.324219 C 2.253906 -0.0390625 2.660156 0.136719 3.105469 0.136719 C 3.535156 0.136719 3.941406 -0.0390625 4.222656 -0.324219 C 4.507812 -0.605469 4.695312 -1.011719 4.695312 -1.457031 L 4.695312 -6.492188 C 4.695312 -7.449219 5.128906 -8.355469 5.804688 -9.015625 C 6.476562 -9.664062 7.382812 -10.09375 8.339844 -10.09375 C 9.3125 -10.09375 10.136719 -9.691406 10.730469 -9.042969 C 11.324219 -8.394531 11.675781 -7.492188 11.675781 -6.519531 L 11.675781 -1.457031 C 11.675781 -1.027344 11.863281 -0.621094 12.148438 -0.335938 C 12.429688 -0.0546875 12.835938 0.136719 13.28125 0.136719 C 13.726562 0.136719 14.128906 -0.0664062 14.414062 -0.363281 C 14.699219 -0.660156 14.859375 -1.039062 14.859375 -1.457031 L 14.859375 -6.53125 C 14.859375 -8.367188 14.253906 -10.027344 13.1875 -11.230469 Z M 13.1875 -11.230469 "/></g></g></g><g fill="#ffffff" fill-opacity="1"><g transform="translate(198.389271, 200.275021)"><g><path d="M 6.695312 0.136719 C 8.191406 0.136719 9.675781 -0.121094 10.796875 -0.730469 C 11.917969 -1.324219 12.660156 -2.265625 12.660156 -3.628906 C 12.660156 -4.25 12.46875 -4.792969 12.078125 -5.25 C 11.308594 -6.152344 10.082031 -6.816406 8.730469 -7.355469 C 8.058594 -7.613281 7.421875 -7.867188 6.84375 -8.109375 C 5.667969 -8.597656 4.804688 -9.082031 4.804688 -9.730469 C 4.804688 -10.488281 5.777344 -10.835938 7.300781 -10.660156 C 7.664062 -10.621094 7.988281 -10.527344 8.285156 -10.40625 C 8.867188 -10.136719 9.351562 -9.8125 9.785156 -9.527344 C 9.988281 -9.378906 10.191406 -9.273438 10.390625 -9.203125 C 10.769531 -9.097656 11.257812 -9.175781 11.605469 -9.433594 C 11.957031 -9.691406 12.199219 -10.09375 12.09375 -10.621094 C 11.78125 -11.527344 11.09375 -12.199219 10.148438 -12.644531 C 9.203125 -13.078125 8.015625 -13.292969 6.816406 -13.292969 C 5.101562 -13.292969 3.777344 -12.820312 2.875 -12.171875 C 1.96875 -11.511719 1.511719 -10.636719 1.511719 -9.824219 C 1.511719 -9.285156 1.621094 -8.800781 1.847656 -8.382812 C 2.292969 -7.53125 3.0625 -6.882812 3.996094 -6.382812 C 4.925781 -5.882812 5.953125 -5.480469 6.882812 -5.15625 C 7.355469 -4.992188 7.773438 -4.832031 8.136719 -4.683594 C 8.878906 -4.371094 9.367188 -4.089844 9.367188 -3.710938 C 9.367188 -3.292969 9.054688 -2.996094 8.554688 -2.808594 C 8.058594 -2.617188 7.382812 -2.523438 6.640625 -2.578125 C 5.980469 -2.578125 5.425781 -2.6875 4.980469 -2.886719 C 4.101562 -3.304688 3.507812 -3.859375 3.078125 -4.320312 C 2.859375 -4.546875 2.644531 -4.683594 2.441406 -4.738281 C 2.023438 -4.859375 1.621094 -4.75 1.308594 -4.496094 C 0.984375 -4.238281 0.796875 -3.859375 0.835938 -3.429688 C 0.984375 -2.292969 1.835938 -1.402344 2.96875 -0.796875 C 4.089844 -0.1875 5.464844 0.136719 6.695312 0.136719 Z M 6.695312 0.136719 "/></g></g></g><g fill="#ffffff" fill-opacity="1"><g transform="translate(211.869964, 200.275021)"><g><path d="M 13.335938 -13.171875 C 12.671875 -13.171875 12.148438 -12.742188 11.929688 -11.605469 L 11.808594 -11.242188 C 10.796875 -12.429688 9.351562 -13.171875 7.53125 -13.171875 C 5.695312 -13.171875 4.050781 -12.417969 2.835938 -11.214844 C 1.621094 -10.015625 0.863281 -8.355469 0.863281 -6.519531 C 0.863281 -4.683594 1.621094 -3.007812 2.835938 -1.808594 C 4.050781 -0.605469 5.695312 0.148438 7.53125 0.148438 C 9.300781 0.148438 10.730469 -0.554688 11.726562 -1.6875 L 11.929688 -0.902344 C 12.132812 -0.269531 12.550781 0.148438 13.210938 0.148438 C 13.847656 0.148438 14.199219 -0.214844 14.199219 -0.878906 L 14.199219 -12.308594 C 14.199219 -12.890625 13.914062 -13.171875 13.335938 -13.171875 Z M 9.988281 -3.980469 C 9.367188 -3.332031 8.503906 -2.929688 7.53125 -2.929688 C 6.558594 -2.929688 5.695312 -3.332031 5.074219 -3.980469 C 4.453125 -4.628906 4.074219 -5.535156 4.074219 -6.519531 C 4.074219 -7.492188 4.453125 -8.394531 5.074219 -9.042969 C 5.695312 -9.691406 6.558594 -10.09375 7.53125 -10.09375 C 8.503906 -10.09375 9.367188 -9.691406 9.988281 -9.042969 C 10.609375 -8.394531 10.984375 -7.492188 10.984375 -6.519531 C 10.984375 -5.535156 10.609375 -4.628906 9.988281 -3.980469 Z M 9.988281 -3.980469 "/></g></g></g><g fill="#000000" fill-opacity="1"><g transform="translate(227.702326, 200.275021)"><g/></g></g><g fill="#000000" fill-opacity="1"><g transform="translate(233.896166, 200.275021)"><g/></g></g><g fill="#007cf0" fill-opacity="1"><g transform="translate(240.089044, 200.275021)"><g><path d="M 14.359375 -1.457031 C 14.359375 -1.957031 14.171875 -2.363281 13.859375 -2.632812 C 13.535156 -2.902344 13.105469 -3.050781 12.632812 -3.050781 L 4.980469 -3.050781 L 4.980469 -7.070312 L 11 -7.070312 C 11.6875 -7.070312 12.214844 -7.4375 12.429688 -8.070312 C 12.605469 -8.570312 12.484375 -9.054688 12.214844 -9.421875 C 11.929688 -9.785156 11.472656 -10.027344 10.984375 -10.027344 L 4.980469 -10.027344 L 4.980469 -14.183594 L 12.714844 -14.183594 C 13.078125 -14.183594 13.375 -14.265625 13.605469 -14.414062 C 14.078125 -14.710938 14.304688 -15.167969 14.304688 -15.710938 C 14.304688 -15.964844 14.253906 -16.210938 14.128906 -16.4375 C 13.886719 -16.882812 13.402344 -17.222656 12.699219 -17.222656 L 2.660156 -17.222656 C 1.847656 -17.222656 1.648438 -16.953125 1.648438 -16.558594 C 1.648438 -16.382812 1.671875 -16.195312 1.726562 -16.007812 C 1.769531 -15.804688 1.796875 -15.613281 1.808594 -15.441406 L 1.808594 -1.714844 C 1.808594 -0.59375 2.46875 0.136719 3.601562 0.136719 L 12.660156 0.136719 C 13.132812 0.136719 13.550781 -0.0273438 13.859375 -0.308594 C 14.171875 -0.582031 14.359375 -0.984375 14.359375 -1.457031 Z M 14.359375 -1.457031 "/></g></g></g><path stroke-linecap="round" transform="matrix(-0.00000000000000381, 2.997245, -3, -0.000000000000003813, 233.842679, 175.354148)" fill="none" stroke-linejoin="miter" d="M 0.499597 -0.000357085 L 12.261701 -0.000357085 " stroke="#ffffff" stroke-width="1" stroke-opacity="1" stroke-miterlimit="4"/></svg>